<mxfile host="app.diagrams.net" agent="Mozilla/5.0 (Windows NT 10.0; Win64; x64) AppleWebKit/537.36 (KHTML, like Gecko) Chrome/129.0.0.0 Safari/537.36" version="24.7.17">
  <diagram id="e6Y2m5DBWpWaMcfSwDP3" name="Page-2">
    <mxGraphModel dx="1400" dy="824" grid="1" gridSize="10" guides="1" tooltips="1" connect="1" arrows="1" fold="1" page="1" pageScale="1" pageWidth="2339" pageHeight="3300" math="0" shadow="0">
      <root>
        <mxCell id="0" />
        <mxCell id="1" parent="0" />
        <mxCell id="mP1-D7ETQi7nWEEPG5Y4-1" value="Customers_Table" style="shape=table;startSize=30;container=1;collapsible=1;childLayout=tableLayout;fixedRows=1;rowLines=0;fontStyle=1;align=center;resizeLast=1;html=1;" parent="1" vertex="1">
          <mxGeometry x="20" y="30" width="370" height="210" as="geometry" />
        </mxCell>
        <mxCell id="mP1-D7ETQi7nWEEPG5Y4-2" value="" style="shape=tableRow;horizontal=0;startSize=0;swimlaneHead=0;swimlaneBody=0;fillColor=none;collapsible=0;dropTarget=0;points=[[0,0.5],[1,0.5]];portConstraint=eastwest;top=0;left=0;right=0;bottom=1;" parent="mP1-D7ETQi7nWEEPG5Y4-1" vertex="1">
          <mxGeometry y="30" width="370" height="30" as="geometry" />
        </mxCell>
        <mxCell id="mP1-D7ETQi7nWEEPG5Y4-3" value="PK" style="shape=partialRectangle;connectable=0;fillColor=none;top=0;left=0;bottom=0;right=0;fontStyle=1;overflow=hidden;whiteSpace=wrap;html=1;" parent="mP1-D7ETQi7nWEEPG5Y4-2" vertex="1">
          <mxGeometry width="30" height="30" as="geometry">
            <mxRectangle width="30" height="30" as="alternateBounds" />
          </mxGeometry>
        </mxCell>
        <mxCell id="mP1-D7ETQi7nWEEPG5Y4-4" value="CustomerID - INT" style="shape=partialRectangle;connectable=0;fillColor=none;top=0;left=0;bottom=0;right=0;align=left;spacingLeft=6;fontStyle=5;overflow=hidden;whiteSpace=wrap;html=1;" parent="mP1-D7ETQi7nWEEPG5Y4-2" vertex="1">
          <mxGeometry x="30" width="340" height="30" as="geometry">
            <mxRectangle width="340" height="30" as="alternateBounds" />
          </mxGeometry>
        </mxCell>
        <mxCell id="mP1-D7ETQi7nWEEPG5Y4-5" value="" style="shape=tableRow;horizontal=0;startSize=0;swimlaneHead=0;swimlaneBody=0;fillColor=none;collapsible=0;dropTarget=0;points=[[0,0.5],[1,0.5]];portConstraint=eastwest;top=0;left=0;right=0;bottom=0;" parent="mP1-D7ETQi7nWEEPG5Y4-1" vertex="1">
          <mxGeometry y="60" width="370" height="30" as="geometry" />
        </mxCell>
        <mxCell id="mP1-D7ETQi7nWEEPG5Y4-6" value="" style="shape=partialRectangle;connectable=0;fillColor=none;top=0;left=0;bottom=0;right=0;editable=1;overflow=hidden;whiteSpace=wrap;html=1;" parent="mP1-D7ETQi7nWEEPG5Y4-5" vertex="1">
          <mxGeometry width="30" height="30" as="geometry">
            <mxRectangle width="30" height="30" as="alternateBounds" />
          </mxGeometry>
        </mxCell>
        <mxCell id="mP1-D7ETQi7nWEEPG5Y4-7" value="Full_Name - VARCHAR(100)" style="shape=partialRectangle;connectable=0;fillColor=none;top=0;left=0;bottom=0;right=0;align=left;spacingLeft=6;overflow=hidden;whiteSpace=wrap;html=1;" parent="mP1-D7ETQi7nWEEPG5Y4-5" vertex="1">
          <mxGeometry x="30" width="340" height="30" as="geometry">
            <mxRectangle width="340" height="30" as="alternateBounds" />
          </mxGeometry>
        </mxCell>
        <mxCell id="mP1-D7ETQi7nWEEPG5Y4-8" value="" style="shape=tableRow;horizontal=0;startSize=0;swimlaneHead=0;swimlaneBody=0;fillColor=none;collapsible=0;dropTarget=0;points=[[0,0.5],[1,0.5]];portConstraint=eastwest;top=0;left=0;right=0;bottom=0;" parent="mP1-D7ETQi7nWEEPG5Y4-1" vertex="1">
          <mxGeometry y="90" width="370" height="30" as="geometry" />
        </mxCell>
        <mxCell id="mP1-D7ETQi7nWEEPG5Y4-9" value="" style="shape=partialRectangle;connectable=0;fillColor=none;top=0;left=0;bottom=0;right=0;editable=1;overflow=hidden;whiteSpace=wrap;html=1;" parent="mP1-D7ETQi7nWEEPG5Y4-8" vertex="1">
          <mxGeometry width="30" height="30" as="geometry">
            <mxRectangle width="30" height="30" as="alternateBounds" />
          </mxGeometry>
        </mxCell>
        <mxCell id="mP1-D7ETQi7nWEEPG5Y4-10" value="Email- VARCHAR(100)" style="shape=partialRectangle;connectable=0;fillColor=none;top=0;left=0;bottom=0;right=0;align=left;spacingLeft=6;overflow=hidden;whiteSpace=wrap;html=1;" parent="mP1-D7ETQi7nWEEPG5Y4-8" vertex="1">
          <mxGeometry x="30" width="340" height="30" as="geometry">
            <mxRectangle width="340" height="30" as="alternateBounds" />
          </mxGeometry>
        </mxCell>
        <mxCell id="mP1-D7ETQi7nWEEPG5Y4-11" value="" style="shape=tableRow;horizontal=0;startSize=0;swimlaneHead=0;swimlaneBody=0;fillColor=none;collapsible=0;dropTarget=0;points=[[0,0.5],[1,0.5]];portConstraint=eastwest;top=0;left=0;right=0;bottom=0;" parent="mP1-D7ETQi7nWEEPG5Y4-1" vertex="1">
          <mxGeometry y="120" width="370" height="30" as="geometry" />
        </mxCell>
        <mxCell id="mP1-D7ETQi7nWEEPG5Y4-12" value="" style="shape=partialRectangle;connectable=0;fillColor=none;top=0;left=0;bottom=0;right=0;editable=1;overflow=hidden;whiteSpace=wrap;html=1;" parent="mP1-D7ETQi7nWEEPG5Y4-11" vertex="1">
          <mxGeometry width="30" height="30" as="geometry">
            <mxRectangle width="30" height="30" as="alternateBounds" />
          </mxGeometry>
        </mxCell>
        <mxCell id="mP1-D7ETQi7nWEEPG5Y4-13" value="Phone_Number -VARCHAR(20)" style="shape=partialRectangle;connectable=0;fillColor=none;top=0;left=0;bottom=0;right=0;align=left;spacingLeft=6;overflow=hidden;whiteSpace=wrap;html=1;" parent="mP1-D7ETQi7nWEEPG5Y4-11" vertex="1">
          <mxGeometry x="30" width="340" height="30" as="geometry">
            <mxRectangle width="340" height="30" as="alternateBounds" />
          </mxGeometry>
        </mxCell>
        <mxCell id="mP1-D7ETQi7nWEEPG5Y4-14" style="shape=tableRow;horizontal=0;startSize=0;swimlaneHead=0;swimlaneBody=0;fillColor=none;collapsible=0;dropTarget=0;points=[[0,0.5],[1,0.5]];portConstraint=eastwest;top=0;left=0;right=0;bottom=0;" parent="mP1-D7ETQi7nWEEPG5Y4-1" vertex="1">
          <mxGeometry y="150" width="370" height="30" as="geometry" />
        </mxCell>
        <mxCell id="mP1-D7ETQi7nWEEPG5Y4-15" style="shape=partialRectangle;connectable=0;fillColor=none;top=0;left=0;bottom=0;right=0;editable=1;overflow=hidden;whiteSpace=wrap;html=1;" parent="mP1-D7ETQi7nWEEPG5Y4-14" vertex="1">
          <mxGeometry width="30" height="30" as="geometry">
            <mxRectangle width="30" height="30" as="alternateBounds" />
          </mxGeometry>
        </mxCell>
        <mxCell id="mP1-D7ETQi7nWEEPG5Y4-16" value="Address -VARCHAR(150)" style="shape=partialRectangle;connectable=0;fillColor=none;top=0;left=0;bottom=0;right=0;align=left;spacingLeft=6;overflow=hidden;whiteSpace=wrap;html=1;" parent="mP1-D7ETQi7nWEEPG5Y4-14" vertex="1">
          <mxGeometry x="30" width="340" height="30" as="geometry">
            <mxRectangle width="340" height="30" as="alternateBounds" />
          </mxGeometry>
        </mxCell>
        <mxCell id="mP1-D7ETQi7nWEEPG5Y4-17" style="shape=tableRow;horizontal=0;startSize=0;swimlaneHead=0;swimlaneBody=0;fillColor=none;collapsible=0;dropTarget=0;points=[[0,0.5],[1,0.5]];portConstraint=eastwest;top=0;left=0;right=0;bottom=0;" parent="mP1-D7ETQi7nWEEPG5Y4-1" vertex="1">
          <mxGeometry y="180" width="370" height="30" as="geometry" />
        </mxCell>
        <mxCell id="mP1-D7ETQi7nWEEPG5Y4-18" style="shape=partialRectangle;connectable=0;fillColor=none;top=0;left=0;bottom=0;right=0;editable=1;overflow=hidden;whiteSpace=wrap;html=1;" parent="mP1-D7ETQi7nWEEPG5Y4-17" vertex="1">
          <mxGeometry width="30" height="30" as="geometry">
            <mxRectangle width="30" height="30" as="alternateBounds" />
          </mxGeometry>
        </mxCell>
        <mxCell id="mP1-D7ETQi7nWEEPG5Y4-19" style="shape=partialRectangle;connectable=0;fillColor=none;top=0;left=0;bottom=0;right=0;align=left;spacingLeft=6;overflow=hidden;whiteSpace=wrap;html=1;" parent="mP1-D7ETQi7nWEEPG5Y4-17" vertex="1">
          <mxGeometry x="30" width="340" height="30" as="geometry">
            <mxRectangle width="340" height="30" as="alternateBounds" />
          </mxGeometry>
        </mxCell>
        <mxCell id="mP1-D7ETQi7nWEEPG5Y4-26" value="Inventory_Table" style="shape=table;startSize=30;container=1;collapsible=1;childLayout=tableLayout;fixedRows=1;rowLines=0;fontStyle=1;align=center;resizeLast=1;html=1;" parent="1" vertex="1">
          <mxGeometry x="960" y="20" width="300" height="310" as="geometry" />
        </mxCell>
        <mxCell id="mP1-D7ETQi7nWEEPG5Y4-27" value="" style="shape=tableRow;horizontal=0;startSize=0;swimlaneHead=0;swimlaneBody=0;fillColor=none;collapsible=0;dropTarget=0;points=[[0,0.5],[1,0.5]];portConstraint=eastwest;top=0;left=0;right=0;bottom=1;" parent="mP1-D7ETQi7nWEEPG5Y4-26" vertex="1">
          <mxGeometry y="30" width="300" height="30" as="geometry" />
        </mxCell>
        <mxCell id="mP1-D7ETQi7nWEEPG5Y4-28" value="PK" style="shape=partialRectangle;connectable=0;fillColor=none;top=0;left=0;bottom=0;right=0;fontStyle=1;overflow=hidden;whiteSpace=wrap;html=1;" parent="mP1-D7ETQi7nWEEPG5Y4-27" vertex="1">
          <mxGeometry width="30" height="30" as="geometry">
            <mxRectangle width="30" height="30" as="alternateBounds" />
          </mxGeometry>
        </mxCell>
        <mxCell id="mP1-D7ETQi7nWEEPG5Y4-29" value="ItemID -INT" style="shape=partialRectangle;connectable=0;fillColor=none;top=0;left=0;bottom=0;right=0;align=left;spacingLeft=6;fontStyle=5;overflow=hidden;whiteSpace=wrap;html=1;" parent="mP1-D7ETQi7nWEEPG5Y4-27" vertex="1">
          <mxGeometry x="30" width="270" height="30" as="geometry">
            <mxRectangle width="270" height="30" as="alternateBounds" />
          </mxGeometry>
        </mxCell>
        <mxCell id="mP1-D7ETQi7nWEEPG5Y4-30" value="" style="shape=tableRow;horizontal=0;startSize=0;swimlaneHead=0;swimlaneBody=0;fillColor=none;collapsible=0;dropTarget=0;points=[[0,0.5],[1,0.5]];portConstraint=eastwest;top=0;left=0;right=0;bottom=0;" parent="mP1-D7ETQi7nWEEPG5Y4-26" vertex="1">
          <mxGeometry y="60" width="300" height="30" as="geometry" />
        </mxCell>
        <mxCell id="mP1-D7ETQi7nWEEPG5Y4-31" value="" style="shape=partialRectangle;connectable=0;fillColor=none;top=0;left=0;bottom=0;right=0;editable=1;overflow=hidden;whiteSpace=wrap;html=1;" parent="mP1-D7ETQi7nWEEPG5Y4-30" vertex="1">
          <mxGeometry width="30" height="30" as="geometry">
            <mxRectangle width="30" height="30" as="alternateBounds" />
          </mxGeometry>
        </mxCell>
        <mxCell id="mP1-D7ETQi7nWEEPG5Y4-32" value="Item_Name -VARCHAR(100)" style="shape=partialRectangle;connectable=0;fillColor=none;top=0;left=0;bottom=0;right=0;align=left;spacingLeft=6;overflow=hidden;whiteSpace=wrap;html=1;" parent="mP1-D7ETQi7nWEEPG5Y4-30" vertex="1">
          <mxGeometry x="30" width="270" height="30" as="geometry">
            <mxRectangle width="270" height="30" as="alternateBounds" />
          </mxGeometry>
        </mxCell>
        <mxCell id="mP1-D7ETQi7nWEEPG5Y4-33" value="" style="shape=tableRow;horizontal=0;startSize=0;swimlaneHead=0;swimlaneBody=0;fillColor=none;collapsible=0;dropTarget=0;points=[[0,0.5],[1,0.5]];portConstraint=eastwest;top=0;left=0;right=0;bottom=0;" parent="mP1-D7ETQi7nWEEPG5Y4-26" vertex="1">
          <mxGeometry y="90" width="300" height="30" as="geometry" />
        </mxCell>
        <mxCell id="mP1-D7ETQi7nWEEPG5Y4-34" value="" style="shape=partialRectangle;connectable=0;fillColor=none;top=0;left=0;bottom=0;right=0;editable=1;overflow=hidden;whiteSpace=wrap;html=1;" parent="mP1-D7ETQi7nWEEPG5Y4-33" vertex="1">
          <mxGeometry width="30" height="30" as="geometry">
            <mxRectangle width="30" height="30" as="alternateBounds" />
          </mxGeometry>
        </mxCell>
        <mxCell id="mP1-D7ETQi7nWEEPG5Y4-35" value="Category -VARCHAR(150)" style="shape=partialRectangle;connectable=0;fillColor=none;top=0;left=0;bottom=0;right=0;align=left;spacingLeft=6;overflow=hidden;whiteSpace=wrap;html=1;" parent="mP1-D7ETQi7nWEEPG5Y4-33" vertex="1">
          <mxGeometry x="30" width="270" height="30" as="geometry">
            <mxRectangle width="270" height="30" as="alternateBounds" />
          </mxGeometry>
        </mxCell>
        <mxCell id="mP1-D7ETQi7nWEEPG5Y4-36" value="" style="shape=tableRow;horizontal=0;startSize=0;swimlaneHead=0;swimlaneBody=0;fillColor=none;collapsible=0;dropTarget=0;points=[[0,0.5],[1,0.5]];portConstraint=eastwest;top=0;left=0;right=0;bottom=0;" parent="mP1-D7ETQi7nWEEPG5Y4-26" vertex="1">
          <mxGeometry y="120" width="300" height="30" as="geometry" />
        </mxCell>
        <mxCell id="mP1-D7ETQi7nWEEPG5Y4-37" value="" style="shape=partialRectangle;connectable=0;fillColor=none;top=0;left=0;bottom=0;right=0;editable=1;overflow=hidden;whiteSpace=wrap;html=1;" parent="mP1-D7ETQi7nWEEPG5Y4-36" vertex="1">
          <mxGeometry width="30" height="30" as="geometry">
            <mxRectangle width="30" height="30" as="alternateBounds" />
          </mxGeometry>
        </mxCell>
        <mxCell id="mP1-D7ETQi7nWEEPG5Y4-38" value="Size -ENUM (Small, Medium, Large)" style="shape=partialRectangle;connectable=0;fillColor=none;top=0;left=0;bottom=0;right=0;align=left;spacingLeft=6;overflow=hidden;whiteSpace=wrap;html=1;" parent="mP1-D7ETQi7nWEEPG5Y4-36" vertex="1">
          <mxGeometry x="30" width="270" height="30" as="geometry">
            <mxRectangle width="270" height="30" as="alternateBounds" />
          </mxGeometry>
        </mxCell>
        <mxCell id="SmJWxPtpSJO5C7kNVtZx-4" style="shape=tableRow;horizontal=0;startSize=0;swimlaneHead=0;swimlaneBody=0;fillColor=none;collapsible=0;dropTarget=0;points=[[0,0.5],[1,0.5]];portConstraint=eastwest;top=0;left=0;right=0;bottom=0;" parent="mP1-D7ETQi7nWEEPG5Y4-26" vertex="1">
          <mxGeometry y="150" width="300" height="30" as="geometry" />
        </mxCell>
        <mxCell id="SmJWxPtpSJO5C7kNVtZx-5" style="shape=partialRectangle;connectable=0;fillColor=none;top=0;left=0;bottom=0;right=0;editable=1;overflow=hidden;whiteSpace=wrap;html=1;" parent="SmJWxPtpSJO5C7kNVtZx-4" vertex="1">
          <mxGeometry width="30" height="30" as="geometry">
            <mxRectangle width="30" height="30" as="alternateBounds" />
          </mxGeometry>
        </mxCell>
        <mxCell id="SmJWxPtpSJO5C7kNVtZx-6" value="Price -DECIMAL(10,2)" style="shape=partialRectangle;connectable=0;fillColor=none;top=0;left=0;bottom=0;right=0;align=left;spacingLeft=6;overflow=hidden;whiteSpace=wrap;html=1;" parent="SmJWxPtpSJO5C7kNVtZx-4" vertex="1">
          <mxGeometry x="30" width="270" height="30" as="geometry">
            <mxRectangle width="270" height="30" as="alternateBounds" />
          </mxGeometry>
        </mxCell>
        <mxCell id="SmJWxPtpSJO5C7kNVtZx-1" style="shape=tableRow;horizontal=0;startSize=0;swimlaneHead=0;swimlaneBody=0;fillColor=none;collapsible=0;dropTarget=0;points=[[0,0.5],[1,0.5]];portConstraint=eastwest;top=0;left=0;right=0;bottom=0;" parent="mP1-D7ETQi7nWEEPG5Y4-26" vertex="1">
          <mxGeometry y="180" width="300" height="30" as="geometry" />
        </mxCell>
        <mxCell id="SmJWxPtpSJO5C7kNVtZx-2" style="shape=partialRectangle;connectable=0;fillColor=none;top=0;left=0;bottom=0;right=0;editable=1;overflow=hidden;whiteSpace=wrap;html=1;" parent="SmJWxPtpSJO5C7kNVtZx-1" vertex="1">
          <mxGeometry width="30" height="30" as="geometry">
            <mxRectangle width="30" height="30" as="alternateBounds" />
          </mxGeometry>
        </mxCell>
        <mxCell id="SmJWxPtpSJO5C7kNVtZx-3" value="Stock_Quantity -INT" style="shape=partialRectangle;connectable=0;fillColor=none;top=0;left=0;bottom=0;right=0;align=left;spacingLeft=6;overflow=hidden;whiteSpace=wrap;html=1;" parent="SmJWxPtpSJO5C7kNVtZx-1" vertex="1">
          <mxGeometry x="30" width="270" height="30" as="geometry">
            <mxRectangle width="270" height="30" as="alternateBounds" />
          </mxGeometry>
        </mxCell>
        <mxCell id="SmJWxPtpSJO5C7kNVtZx-7" style="shape=tableRow;horizontal=0;startSize=0;swimlaneHead=0;swimlaneBody=0;fillColor=none;collapsible=0;dropTarget=0;points=[[0,0.5],[1,0.5]];portConstraint=eastwest;top=0;left=0;right=0;bottom=0;" parent="mP1-D7ETQi7nWEEPG5Y4-26" vertex="1">
          <mxGeometry y="210" width="300" height="30" as="geometry" />
        </mxCell>
        <mxCell id="SmJWxPtpSJO5C7kNVtZx-8" value="&lt;b&gt;FK&lt;/b&gt;" style="shape=partialRectangle;connectable=0;fillColor=none;top=0;left=0;bottom=0;right=0;editable=1;overflow=hidden;whiteSpace=wrap;html=1;" parent="SmJWxPtpSJO5C7kNVtZx-7" vertex="1">
          <mxGeometry width="30" height="30" as="geometry">
            <mxRectangle width="30" height="30" as="alternateBounds" />
          </mxGeometry>
        </mxCell>
        <mxCell id="SmJWxPtpSJO5C7kNVtZx-9" value="SupplierID -INT" style="shape=partialRectangle;connectable=0;fillColor=none;top=0;left=0;bottom=0;right=0;align=left;spacingLeft=6;overflow=hidden;whiteSpace=wrap;html=1;" parent="SmJWxPtpSJO5C7kNVtZx-7" vertex="1">
          <mxGeometry x="30" width="270" height="30" as="geometry">
            <mxRectangle width="270" height="30" as="alternateBounds" />
          </mxGeometry>
        </mxCell>
        <mxCell id="SmJWxPtpSJO5C7kNVtZx-10" value="Transactions_Table" style="shape=table;startSize=30;container=1;collapsible=1;childLayout=tableLayout;fixedRows=1;rowLines=0;fontStyle=1;align=center;resizeLast=1;html=1;" parent="1" vertex="1">
          <mxGeometry x="90" y="310" width="240" height="260" as="geometry" />
        </mxCell>
        <mxCell id="SmJWxPtpSJO5C7kNVtZx-11" value="" style="shape=tableRow;horizontal=0;startSize=0;swimlaneHead=0;swimlaneBody=0;fillColor=none;collapsible=0;dropTarget=0;points=[[0,0.5],[1,0.5]];portConstraint=eastwest;top=0;left=0;right=0;bottom=1;" parent="SmJWxPtpSJO5C7kNVtZx-10" vertex="1">
          <mxGeometry y="30" width="240" height="30" as="geometry" />
        </mxCell>
        <mxCell id="SmJWxPtpSJO5C7kNVtZx-12" value="PK" style="shape=partialRectangle;connectable=0;fillColor=none;top=0;left=0;bottom=0;right=0;fontStyle=1;overflow=hidden;whiteSpace=wrap;html=1;" parent="SmJWxPtpSJO5C7kNVtZx-11" vertex="1">
          <mxGeometry width="30" height="30" as="geometry">
            <mxRectangle width="30" height="30" as="alternateBounds" />
          </mxGeometry>
        </mxCell>
        <mxCell id="SmJWxPtpSJO5C7kNVtZx-13" value="TransactionID -INT" style="shape=partialRectangle;connectable=0;fillColor=none;top=0;left=0;bottom=0;right=0;align=left;spacingLeft=6;fontStyle=5;overflow=hidden;whiteSpace=wrap;html=1;" parent="SmJWxPtpSJO5C7kNVtZx-11" vertex="1">
          <mxGeometry x="30" width="210" height="30" as="geometry">
            <mxRectangle width="210" height="30" as="alternateBounds" />
          </mxGeometry>
        </mxCell>
        <mxCell id="SmJWxPtpSJO5C7kNVtZx-14" value="" style="shape=tableRow;horizontal=0;startSize=0;swimlaneHead=0;swimlaneBody=0;fillColor=none;collapsible=0;dropTarget=0;points=[[0,0.5],[1,0.5]];portConstraint=eastwest;top=0;left=0;right=0;bottom=0;" parent="SmJWxPtpSJO5C7kNVtZx-10" vertex="1">
          <mxGeometry y="60" width="240" height="30" as="geometry" />
        </mxCell>
        <mxCell id="SmJWxPtpSJO5C7kNVtZx-15" value="&lt;b&gt;FK&lt;/b&gt;" style="shape=partialRectangle;connectable=0;fillColor=none;top=0;left=0;bottom=0;right=0;editable=1;overflow=hidden;whiteSpace=wrap;html=1;" parent="SmJWxPtpSJO5C7kNVtZx-14" vertex="1">
          <mxGeometry width="30" height="30" as="geometry">
            <mxRectangle width="30" height="30" as="alternateBounds" />
          </mxGeometry>
        </mxCell>
        <mxCell id="SmJWxPtpSJO5C7kNVtZx-16" value="CustomerID -INT" style="shape=partialRectangle;connectable=0;fillColor=none;top=0;left=0;bottom=0;right=0;align=left;spacingLeft=6;overflow=hidden;whiteSpace=wrap;html=1;" parent="SmJWxPtpSJO5C7kNVtZx-14" vertex="1">
          <mxGeometry x="30" width="210" height="30" as="geometry">
            <mxRectangle width="210" height="30" as="alternateBounds" />
          </mxGeometry>
        </mxCell>
        <mxCell id="SmJWxPtpSJO5C7kNVtZx-17" value="" style="shape=tableRow;horizontal=0;startSize=0;swimlaneHead=0;swimlaneBody=0;fillColor=none;collapsible=0;dropTarget=0;points=[[0,0.5],[1,0.5]];portConstraint=eastwest;top=0;left=0;right=0;bottom=0;" parent="SmJWxPtpSJO5C7kNVtZx-10" vertex="1">
          <mxGeometry y="90" width="240" height="30" as="geometry" />
        </mxCell>
        <mxCell id="SmJWxPtpSJO5C7kNVtZx-18" value="&lt;b&gt;FK&lt;/b&gt;" style="shape=partialRectangle;connectable=0;fillColor=none;top=0;left=0;bottom=0;right=0;editable=1;overflow=hidden;whiteSpace=wrap;html=1;" parent="SmJWxPtpSJO5C7kNVtZx-17" vertex="1">
          <mxGeometry width="30" height="30" as="geometry">
            <mxRectangle width="30" height="30" as="alternateBounds" />
          </mxGeometry>
        </mxCell>
        <mxCell id="SmJWxPtpSJO5C7kNVtZx-19" value="ItemID -INT" style="shape=partialRectangle;connectable=0;fillColor=none;top=0;left=0;bottom=0;right=0;align=left;spacingLeft=6;overflow=hidden;whiteSpace=wrap;html=1;" parent="SmJWxPtpSJO5C7kNVtZx-17" vertex="1">
          <mxGeometry x="30" width="210" height="30" as="geometry">
            <mxRectangle width="210" height="30" as="alternateBounds" />
          </mxGeometry>
        </mxCell>
        <mxCell id="SmJWxPtpSJO5C7kNVtZx-20" value="" style="shape=tableRow;horizontal=0;startSize=0;swimlaneHead=0;swimlaneBody=0;fillColor=none;collapsible=0;dropTarget=0;points=[[0,0.5],[1,0.5]];portConstraint=eastwest;top=0;left=0;right=0;bottom=0;" parent="SmJWxPtpSJO5C7kNVtZx-10" vertex="1">
          <mxGeometry y="120" width="240" height="30" as="geometry" />
        </mxCell>
        <mxCell id="SmJWxPtpSJO5C7kNVtZx-21" value="" style="shape=partialRectangle;connectable=0;fillColor=none;top=0;left=0;bottom=0;right=0;editable=1;overflow=hidden;whiteSpace=wrap;html=1;" parent="SmJWxPtpSJO5C7kNVtZx-20" vertex="1">
          <mxGeometry width="30" height="30" as="geometry">
            <mxRectangle width="30" height="30" as="alternateBounds" />
          </mxGeometry>
        </mxCell>
        <mxCell id="SmJWxPtpSJO5C7kNVtZx-22" value="Quantity -INT" style="shape=partialRectangle;connectable=0;fillColor=none;top=0;left=0;bottom=0;right=0;align=left;spacingLeft=6;overflow=hidden;whiteSpace=wrap;html=1;" parent="SmJWxPtpSJO5C7kNVtZx-20" vertex="1">
          <mxGeometry x="30" width="210" height="30" as="geometry">
            <mxRectangle width="210" height="30" as="alternateBounds" />
          </mxGeometry>
        </mxCell>
        <mxCell id="SmJWxPtpSJO5C7kNVtZx-26" style="shape=tableRow;horizontal=0;startSize=0;swimlaneHead=0;swimlaneBody=0;fillColor=none;collapsible=0;dropTarget=0;points=[[0,0.5],[1,0.5]];portConstraint=eastwest;top=0;left=0;right=0;bottom=0;" parent="SmJWxPtpSJO5C7kNVtZx-10" vertex="1">
          <mxGeometry y="150" width="240" height="30" as="geometry" />
        </mxCell>
        <mxCell id="SmJWxPtpSJO5C7kNVtZx-27" style="shape=partialRectangle;connectable=0;fillColor=none;top=0;left=0;bottom=0;right=0;editable=1;overflow=hidden;whiteSpace=wrap;html=1;" parent="SmJWxPtpSJO5C7kNVtZx-26" vertex="1">
          <mxGeometry width="30" height="30" as="geometry">
            <mxRectangle width="30" height="30" as="alternateBounds" />
          </mxGeometry>
        </mxCell>
        <mxCell id="SmJWxPtpSJO5C7kNVtZx-28" value="Transaction_Date -DATE" style="shape=partialRectangle;connectable=0;fillColor=none;top=0;left=0;bottom=0;right=0;align=left;spacingLeft=6;overflow=hidden;whiteSpace=wrap;html=1;" parent="SmJWxPtpSJO5C7kNVtZx-26" vertex="1">
          <mxGeometry x="30" width="210" height="30" as="geometry">
            <mxRectangle width="210" height="30" as="alternateBounds" />
          </mxGeometry>
        </mxCell>
        <mxCell id="SmJWxPtpSJO5C7kNVtZx-23" style="shape=tableRow;horizontal=0;startSize=0;swimlaneHead=0;swimlaneBody=0;fillColor=none;collapsible=0;dropTarget=0;points=[[0,0.5],[1,0.5]];portConstraint=eastwest;top=0;left=0;right=0;bottom=0;" parent="SmJWxPtpSJO5C7kNVtZx-10" vertex="1">
          <mxGeometry y="180" width="240" height="30" as="geometry" />
        </mxCell>
        <mxCell id="SmJWxPtpSJO5C7kNVtZx-24" style="shape=partialRectangle;connectable=0;fillColor=none;top=0;left=0;bottom=0;right=0;editable=1;overflow=hidden;whiteSpace=wrap;html=1;" parent="SmJWxPtpSJO5C7kNVtZx-23" vertex="1">
          <mxGeometry width="30" height="30" as="geometry">
            <mxRectangle width="30" height="30" as="alternateBounds" />
          </mxGeometry>
        </mxCell>
        <mxCell id="SmJWxPtpSJO5C7kNVtZx-25" value="Total_Amount -DECIMAL(10,2)" style="shape=partialRectangle;connectable=0;fillColor=none;top=0;left=0;bottom=0;right=0;align=left;spacingLeft=6;overflow=hidden;whiteSpace=wrap;html=1;" parent="SmJWxPtpSJO5C7kNVtZx-23" vertex="1">
          <mxGeometry x="30" width="210" height="30" as="geometry">
            <mxRectangle width="210" height="30" as="alternateBounds" />
          </mxGeometry>
        </mxCell>
        <mxCell id="SmJWxPtpSJO5C7kNVtZx-29" value="Supplier_Table" style="shape=table;startSize=30;container=1;collapsible=1;childLayout=tableLayout;fixedRows=1;rowLines=0;fontStyle=1;align=center;resizeLast=1;html=1;" parent="1" vertex="1">
          <mxGeometry x="950" y="390" width="300" height="300" as="geometry" />
        </mxCell>
        <mxCell id="SmJWxPtpSJO5C7kNVtZx-30" value="" style="shape=tableRow;horizontal=0;startSize=0;swimlaneHead=0;swimlaneBody=0;fillColor=none;collapsible=0;dropTarget=0;points=[[0,0.5],[1,0.5]];portConstraint=eastwest;top=0;left=0;right=0;bottom=1;" parent="SmJWxPtpSJO5C7kNVtZx-29" vertex="1">
          <mxGeometry y="30" width="300" height="30" as="geometry" />
        </mxCell>
        <mxCell id="SmJWxPtpSJO5C7kNVtZx-31" value="PK" style="shape=partialRectangle;connectable=0;fillColor=none;top=0;left=0;bottom=0;right=0;fontStyle=1;overflow=hidden;whiteSpace=wrap;html=1;" parent="SmJWxPtpSJO5C7kNVtZx-30" vertex="1">
          <mxGeometry width="30" height="30" as="geometry">
            <mxRectangle width="30" height="30" as="alternateBounds" />
          </mxGeometry>
        </mxCell>
        <mxCell id="SmJWxPtpSJO5C7kNVtZx-32" value="SupplierID -INT" style="shape=partialRectangle;connectable=0;fillColor=none;top=0;left=0;bottom=0;right=0;align=left;spacingLeft=6;fontStyle=5;overflow=hidden;whiteSpace=wrap;html=1;" parent="SmJWxPtpSJO5C7kNVtZx-30" vertex="1">
          <mxGeometry x="30" width="270" height="30" as="geometry">
            <mxRectangle width="270" height="30" as="alternateBounds" />
          </mxGeometry>
        </mxCell>
        <mxCell id="SmJWxPtpSJO5C7kNVtZx-33" value="" style="shape=tableRow;horizontal=0;startSize=0;swimlaneHead=0;swimlaneBody=0;fillColor=none;collapsible=0;dropTarget=0;points=[[0,0.5],[1,0.5]];portConstraint=eastwest;top=0;left=0;right=0;bottom=0;" parent="SmJWxPtpSJO5C7kNVtZx-29" vertex="1">
          <mxGeometry y="60" width="300" height="30" as="geometry" />
        </mxCell>
        <mxCell id="SmJWxPtpSJO5C7kNVtZx-34" value="" style="shape=partialRectangle;connectable=0;fillColor=none;top=0;left=0;bottom=0;right=0;editable=1;overflow=hidden;whiteSpace=wrap;html=1;" parent="SmJWxPtpSJO5C7kNVtZx-33" vertex="1">
          <mxGeometry width="30" height="30" as="geometry">
            <mxRectangle width="30" height="30" as="alternateBounds" />
          </mxGeometry>
        </mxCell>
        <mxCell id="SmJWxPtpSJO5C7kNVtZx-35" value="Supplier_Name -VARCHAR(100)" style="shape=partialRectangle;connectable=0;fillColor=none;top=0;left=0;bottom=0;right=0;align=left;spacingLeft=6;overflow=hidden;whiteSpace=wrap;html=1;" parent="SmJWxPtpSJO5C7kNVtZx-33" vertex="1">
          <mxGeometry x="30" width="270" height="30" as="geometry">
            <mxRectangle width="270" height="30" as="alternateBounds" />
          </mxGeometry>
        </mxCell>
        <mxCell id="SmJWxPtpSJO5C7kNVtZx-36" value="" style="shape=tableRow;horizontal=0;startSize=0;swimlaneHead=0;swimlaneBody=0;fillColor=none;collapsible=0;dropTarget=0;points=[[0,0.5],[1,0.5]];portConstraint=eastwest;top=0;left=0;right=0;bottom=0;" parent="SmJWxPtpSJO5C7kNVtZx-29" vertex="1">
          <mxGeometry y="90" width="300" height="30" as="geometry" />
        </mxCell>
        <mxCell id="SmJWxPtpSJO5C7kNVtZx-37" value="" style="shape=partialRectangle;connectable=0;fillColor=none;top=0;left=0;bottom=0;right=0;editable=1;overflow=hidden;whiteSpace=wrap;html=1;" parent="SmJWxPtpSJO5C7kNVtZx-36" vertex="1">
          <mxGeometry width="30" height="30" as="geometry">
            <mxRectangle width="30" height="30" as="alternateBounds" />
          </mxGeometry>
        </mxCell>
        <mxCell id="SmJWxPtpSJO5C7kNVtZx-38" value="Phone_Number -VARCHAR(20)" style="shape=partialRectangle;connectable=0;fillColor=none;top=0;left=0;bottom=0;right=0;align=left;spacingLeft=6;overflow=hidden;whiteSpace=wrap;html=1;" parent="SmJWxPtpSJO5C7kNVtZx-36" vertex="1">
          <mxGeometry x="30" width="270" height="30" as="geometry">
            <mxRectangle width="270" height="30" as="alternateBounds" />
          </mxGeometry>
        </mxCell>
        <mxCell id="SmJWxPtpSJO5C7kNVtZx-39" value="" style="shape=tableRow;horizontal=0;startSize=0;swimlaneHead=0;swimlaneBody=0;fillColor=none;collapsible=0;dropTarget=0;points=[[0,0.5],[1,0.5]];portConstraint=eastwest;top=0;left=0;right=0;bottom=0;" parent="SmJWxPtpSJO5C7kNVtZx-29" vertex="1">
          <mxGeometry y="120" width="300" height="30" as="geometry" />
        </mxCell>
        <mxCell id="SmJWxPtpSJO5C7kNVtZx-40" value="" style="shape=partialRectangle;connectable=0;fillColor=none;top=0;left=0;bottom=0;right=0;editable=1;overflow=hidden;whiteSpace=wrap;html=1;" parent="SmJWxPtpSJO5C7kNVtZx-39" vertex="1">
          <mxGeometry width="30" height="30" as="geometry">
            <mxRectangle width="30" height="30" as="alternateBounds" />
          </mxGeometry>
        </mxCell>
        <mxCell id="SmJWxPtpSJO5C7kNVtZx-41" value="Email&amp;nbsp; -VARCHAR(150)" style="shape=partialRectangle;connectable=0;fillColor=none;top=0;left=0;bottom=0;right=0;align=left;spacingLeft=6;overflow=hidden;whiteSpace=wrap;html=1;" parent="SmJWxPtpSJO5C7kNVtZx-39" vertex="1">
          <mxGeometry x="30" width="270" height="30" as="geometry">
            <mxRectangle width="270" height="30" as="alternateBounds" />
          </mxGeometry>
        </mxCell>
        <mxCell id="SmJWxPtpSJO5C7kNVtZx-45" style="shape=tableRow;horizontal=0;startSize=0;swimlaneHead=0;swimlaneBody=0;fillColor=none;collapsible=0;dropTarget=0;points=[[0,0.5],[1,0.5]];portConstraint=eastwest;top=0;left=0;right=0;bottom=0;" parent="SmJWxPtpSJO5C7kNVtZx-29" vertex="1">
          <mxGeometry y="150" width="300" height="30" as="geometry" />
        </mxCell>
        <mxCell id="SmJWxPtpSJO5C7kNVtZx-46" style="shape=partialRectangle;connectable=0;fillColor=none;top=0;left=0;bottom=0;right=0;editable=1;overflow=hidden;whiteSpace=wrap;html=1;" parent="SmJWxPtpSJO5C7kNVtZx-45" vertex="1">
          <mxGeometry width="30" height="30" as="geometry">
            <mxRectangle width="30" height="30" as="alternateBounds" />
          </mxGeometry>
        </mxCell>
        <mxCell id="SmJWxPtpSJO5C7kNVtZx-47" value="Address -VARCHAR(150)" style="shape=partialRectangle;connectable=0;fillColor=none;top=0;left=0;bottom=0;right=0;align=left;spacingLeft=6;overflow=hidden;whiteSpace=wrap;html=1;" parent="SmJWxPtpSJO5C7kNVtZx-45" vertex="1">
          <mxGeometry x="30" width="270" height="30" as="geometry">
            <mxRectangle width="270" height="30" as="alternateBounds" />
          </mxGeometry>
        </mxCell>
        <mxCell id="SmJWxPtpSJO5C7kNVtZx-42" style="shape=tableRow;horizontal=0;startSize=0;swimlaneHead=0;swimlaneBody=0;fillColor=none;collapsible=0;dropTarget=0;points=[[0,0.5],[1,0.5]];portConstraint=eastwest;top=0;left=0;right=0;bottom=0;" parent="SmJWxPtpSJO5C7kNVtZx-29" vertex="1">
          <mxGeometry y="180" width="300" height="30" as="geometry" />
        </mxCell>
        <mxCell id="SmJWxPtpSJO5C7kNVtZx-43" value="&lt;b&gt;FK&lt;/b&gt;" style="shape=partialRectangle;connectable=0;fillColor=none;top=0;left=0;bottom=0;right=0;editable=1;overflow=hidden;whiteSpace=wrap;html=1;" parent="SmJWxPtpSJO5C7kNVtZx-42" vertex="1">
          <mxGeometry width="30" height="30" as="geometry">
            <mxRectangle width="30" height="30" as="alternateBounds" />
          </mxGeometry>
        </mxCell>
        <mxCell id="SmJWxPtpSJO5C7kNVtZx-44" value="ItemID -INT" style="shape=partialRectangle;connectable=0;fillColor=none;top=0;left=0;bottom=0;right=0;align=left;spacingLeft=6;overflow=hidden;whiteSpace=wrap;html=1;" parent="SmJWxPtpSJO5C7kNVtZx-42" vertex="1">
          <mxGeometry x="30" width="270" height="30" as="geometry">
            <mxRectangle width="270" height="30" as="alternateBounds" />
          </mxGeometry>
        </mxCell>
        <mxCell id="Jxyg6J1B9j0fqfmeKga0-4" style="shape=tableRow;horizontal=0;startSize=0;swimlaneHead=0;swimlaneBody=0;fillColor=none;collapsible=0;dropTarget=0;points=[[0,0.5],[1,0.5]];portConstraint=eastwest;top=0;left=0;right=0;bottom=0;" vertex="1" parent="SmJWxPtpSJO5C7kNVtZx-29">
          <mxGeometry y="210" width="300" height="30" as="geometry" />
        </mxCell>
        <mxCell id="Jxyg6J1B9j0fqfmeKga0-5" style="shape=partialRectangle;connectable=0;fillColor=none;top=0;left=0;bottom=0;right=0;editable=1;overflow=hidden;whiteSpace=wrap;html=1;" vertex="1" parent="Jxyg6J1B9j0fqfmeKga0-4">
          <mxGeometry width="30" height="30" as="geometry">
            <mxRectangle width="30" height="30" as="alternateBounds" />
          </mxGeometry>
        </mxCell>
        <mxCell id="Jxyg6J1B9j0fqfmeKga0-6" value="Supply_Delivery_Date -date" style="shape=partialRectangle;connectable=0;fillColor=none;top=0;left=0;bottom=0;right=0;align=left;spacingLeft=6;overflow=hidden;whiteSpace=wrap;html=1;" vertex="1" parent="Jxyg6J1B9j0fqfmeKga0-4">
          <mxGeometry x="30" width="270" height="30" as="geometry">
            <mxRectangle width="270" height="30" as="alternateBounds" />
          </mxGeometry>
        </mxCell>
        <mxCell id="Jxyg6J1B9j0fqfmeKga0-1" style="shape=tableRow;horizontal=0;startSize=0;swimlaneHead=0;swimlaneBody=0;fillColor=none;collapsible=0;dropTarget=0;points=[[0,0.5],[1,0.5]];portConstraint=eastwest;top=0;left=0;right=0;bottom=0;" vertex="1" parent="SmJWxPtpSJO5C7kNVtZx-29">
          <mxGeometry y="240" width="300" height="30" as="geometry" />
        </mxCell>
        <mxCell id="Jxyg6J1B9j0fqfmeKga0-2" style="shape=partialRectangle;connectable=0;fillColor=none;top=0;left=0;bottom=0;right=0;editable=1;overflow=hidden;whiteSpace=wrap;html=1;" vertex="1" parent="Jxyg6J1B9j0fqfmeKga0-1">
          <mxGeometry width="30" height="30" as="geometry">
            <mxRectangle width="30" height="30" as="alternateBounds" />
          </mxGeometry>
        </mxCell>
        <mxCell id="Jxyg6J1B9j0fqfmeKga0-3" style="shape=partialRectangle;connectable=0;fillColor=none;top=0;left=0;bottom=0;right=0;align=left;spacingLeft=6;overflow=hidden;whiteSpace=wrap;html=1;" vertex="1" parent="Jxyg6J1B9j0fqfmeKga0-1">
          <mxGeometry x="30" width="270" height="30" as="geometry">
            <mxRectangle width="270" height="30" as="alternateBounds" />
          </mxGeometry>
        </mxCell>
        <mxCell id="SmJWxPtpSJO5C7kNVtZx-48" value="Employee_Table" style="shape=table;startSize=30;container=1;collapsible=1;childLayout=tableLayout;fixedRows=1;rowLines=0;fontStyle=1;align=center;resizeLast=1;html=1;" parent="1" vertex="1">
          <mxGeometry x="980" y="740" width="260" height="410" as="geometry" />
        </mxCell>
        <mxCell id="SmJWxPtpSJO5C7kNVtZx-49" value="" style="shape=tableRow;horizontal=0;startSize=0;swimlaneHead=0;swimlaneBody=0;fillColor=none;collapsible=0;dropTarget=0;points=[[0,0.5],[1,0.5]];portConstraint=eastwest;top=0;left=0;right=0;bottom=1;" parent="SmJWxPtpSJO5C7kNVtZx-48" vertex="1">
          <mxGeometry y="30" width="260" height="30" as="geometry" />
        </mxCell>
        <mxCell id="SmJWxPtpSJO5C7kNVtZx-50" value="PK" style="shape=partialRectangle;connectable=0;fillColor=none;top=0;left=0;bottom=0;right=0;fontStyle=1;overflow=hidden;whiteSpace=wrap;html=1;" parent="SmJWxPtpSJO5C7kNVtZx-49" vertex="1">
          <mxGeometry width="30" height="30" as="geometry">
            <mxRectangle width="30" height="30" as="alternateBounds" />
          </mxGeometry>
        </mxCell>
        <mxCell id="SmJWxPtpSJO5C7kNVtZx-51" value="EmployeeID -INT" style="shape=partialRectangle;connectable=0;fillColor=none;top=0;left=0;bottom=0;right=0;align=left;spacingLeft=6;fontStyle=5;overflow=hidden;whiteSpace=wrap;html=1;" parent="SmJWxPtpSJO5C7kNVtZx-49" vertex="1">
          <mxGeometry x="30" width="230" height="30" as="geometry">
            <mxRectangle width="230" height="30" as="alternateBounds" />
          </mxGeometry>
        </mxCell>
        <mxCell id="SmJWxPtpSJO5C7kNVtZx-52" value="" style="shape=tableRow;horizontal=0;startSize=0;swimlaneHead=0;swimlaneBody=0;fillColor=none;collapsible=0;dropTarget=0;points=[[0,0.5],[1,0.5]];portConstraint=eastwest;top=0;left=0;right=0;bottom=0;" parent="SmJWxPtpSJO5C7kNVtZx-48" vertex="1">
          <mxGeometry y="60" width="260" height="30" as="geometry" />
        </mxCell>
        <mxCell id="SmJWxPtpSJO5C7kNVtZx-53" value="" style="shape=partialRectangle;connectable=0;fillColor=none;top=0;left=0;bottom=0;right=0;editable=1;overflow=hidden;whiteSpace=wrap;html=1;" parent="SmJWxPtpSJO5C7kNVtZx-52" vertex="1">
          <mxGeometry width="30" height="30" as="geometry">
            <mxRectangle width="30" height="30" as="alternateBounds" />
          </mxGeometry>
        </mxCell>
        <mxCell id="SmJWxPtpSJO5C7kNVtZx-54" value="Full_Name -VARCHAR(100)" style="shape=partialRectangle;connectable=0;fillColor=none;top=0;left=0;bottom=0;right=0;align=left;spacingLeft=6;overflow=hidden;whiteSpace=wrap;html=1;" parent="SmJWxPtpSJO5C7kNVtZx-52" vertex="1">
          <mxGeometry x="30" width="230" height="30" as="geometry">
            <mxRectangle width="230" height="30" as="alternateBounds" />
          </mxGeometry>
        </mxCell>
        <mxCell id="SmJWxPtpSJO5C7kNVtZx-55" value="" style="shape=tableRow;horizontal=0;startSize=0;swimlaneHead=0;swimlaneBody=0;fillColor=none;collapsible=0;dropTarget=0;points=[[0,0.5],[1,0.5]];portConstraint=eastwest;top=0;left=0;right=0;bottom=0;" parent="SmJWxPtpSJO5C7kNVtZx-48" vertex="1">
          <mxGeometry y="90" width="260" height="30" as="geometry" />
        </mxCell>
        <mxCell id="SmJWxPtpSJO5C7kNVtZx-56" value="" style="shape=partialRectangle;connectable=0;fillColor=none;top=0;left=0;bottom=0;right=0;editable=1;overflow=hidden;whiteSpace=wrap;html=1;" parent="SmJWxPtpSJO5C7kNVtZx-55" vertex="1">
          <mxGeometry width="30" height="30" as="geometry">
            <mxRectangle width="30" height="30" as="alternateBounds" />
          </mxGeometry>
        </mxCell>
        <mxCell id="SmJWxPtpSJO5C7kNVtZx-57" value="Email -VARCHAR(100)" style="shape=partialRectangle;connectable=0;fillColor=none;top=0;left=0;bottom=0;right=0;align=left;spacingLeft=6;overflow=hidden;whiteSpace=wrap;html=1;" parent="SmJWxPtpSJO5C7kNVtZx-55" vertex="1">
          <mxGeometry x="30" width="230" height="30" as="geometry">
            <mxRectangle width="230" height="30" as="alternateBounds" />
          </mxGeometry>
        </mxCell>
        <mxCell id="SmJWxPtpSJO5C7kNVtZx-58" value="" style="shape=tableRow;horizontal=0;startSize=0;swimlaneHead=0;swimlaneBody=0;fillColor=none;collapsible=0;dropTarget=0;points=[[0,0.5],[1,0.5]];portConstraint=eastwest;top=0;left=0;right=0;bottom=0;" parent="SmJWxPtpSJO5C7kNVtZx-48" vertex="1">
          <mxGeometry y="120" width="260" height="30" as="geometry" />
        </mxCell>
        <mxCell id="SmJWxPtpSJO5C7kNVtZx-59" value="" style="shape=partialRectangle;connectable=0;fillColor=none;top=0;left=0;bottom=0;right=0;editable=1;overflow=hidden;whiteSpace=wrap;html=1;" parent="SmJWxPtpSJO5C7kNVtZx-58" vertex="1">
          <mxGeometry width="30" height="30" as="geometry">
            <mxRectangle width="30" height="30" as="alternateBounds" />
          </mxGeometry>
        </mxCell>
        <mxCell id="SmJWxPtpSJO5C7kNVtZx-60" value="Phone_Number -VARCHAR(20)" style="shape=partialRectangle;connectable=0;fillColor=none;top=0;left=0;bottom=0;right=0;align=left;spacingLeft=6;overflow=hidden;whiteSpace=wrap;html=1;" parent="SmJWxPtpSJO5C7kNVtZx-58" vertex="1">
          <mxGeometry x="30" width="230" height="30" as="geometry">
            <mxRectangle width="230" height="30" as="alternateBounds" />
          </mxGeometry>
        </mxCell>
        <mxCell id="SmJWxPtpSJO5C7kNVtZx-64" style="shape=tableRow;horizontal=0;startSize=0;swimlaneHead=0;swimlaneBody=0;fillColor=none;collapsible=0;dropTarget=0;points=[[0,0.5],[1,0.5]];portConstraint=eastwest;top=0;left=0;right=0;bottom=0;" parent="SmJWxPtpSJO5C7kNVtZx-48" vertex="1">
          <mxGeometry y="150" width="260" height="30" as="geometry" />
        </mxCell>
        <mxCell id="SmJWxPtpSJO5C7kNVtZx-65" style="shape=partialRectangle;connectable=0;fillColor=none;top=0;left=0;bottom=0;right=0;editable=1;overflow=hidden;whiteSpace=wrap;html=1;" parent="SmJWxPtpSJO5C7kNVtZx-64" vertex="1">
          <mxGeometry width="30" height="30" as="geometry">
            <mxRectangle width="30" height="30" as="alternateBounds" />
          </mxGeometry>
        </mxCell>
        <mxCell id="SmJWxPtpSJO5C7kNVtZx-66" value="Postion -VARCHAR(100)" style="shape=partialRectangle;connectable=0;fillColor=none;top=0;left=0;bottom=0;right=0;align=left;spacingLeft=6;overflow=hidden;whiteSpace=wrap;html=1;" parent="SmJWxPtpSJO5C7kNVtZx-64" vertex="1">
          <mxGeometry x="30" width="230" height="30" as="geometry">
            <mxRectangle width="230" height="30" as="alternateBounds" />
          </mxGeometry>
        </mxCell>
        <mxCell id="SmJWxPtpSJO5C7kNVtZx-61" style="shape=tableRow;horizontal=0;startSize=0;swimlaneHead=0;swimlaneBody=0;fillColor=none;collapsible=0;dropTarget=0;points=[[0,0.5],[1,0.5]];portConstraint=eastwest;top=0;left=0;right=0;bottom=0;" parent="SmJWxPtpSJO5C7kNVtZx-48" vertex="1">
          <mxGeometry y="180" width="260" height="30" as="geometry" />
        </mxCell>
        <mxCell id="SmJWxPtpSJO5C7kNVtZx-62" style="shape=partialRectangle;connectable=0;fillColor=none;top=0;left=0;bottom=0;right=0;editable=1;overflow=hidden;whiteSpace=wrap;html=1;" parent="SmJWxPtpSJO5C7kNVtZx-61" vertex="1">
          <mxGeometry width="30" height="30" as="geometry">
            <mxRectangle width="30" height="30" as="alternateBounds" />
          </mxGeometry>
        </mxCell>
        <mxCell id="SmJWxPtpSJO5C7kNVtZx-63" value="Salary -DECIMAL(10,2)" style="shape=partialRectangle;connectable=0;fillColor=none;top=0;left=0;bottom=0;right=0;align=left;spacingLeft=6;overflow=hidden;whiteSpace=wrap;html=1;" parent="SmJWxPtpSJO5C7kNVtZx-61" vertex="1">
          <mxGeometry x="30" width="230" height="30" as="geometry">
            <mxRectangle width="230" height="30" as="alternateBounds" />
          </mxGeometry>
        </mxCell>
        <mxCell id="SmJWxPtpSJO5C7kNVtZx-70" style="shape=tableRow;horizontal=0;startSize=0;swimlaneHead=0;swimlaneBody=0;fillColor=none;collapsible=0;dropTarget=0;points=[[0,0.5],[1,0.5]];portConstraint=eastwest;top=0;left=0;right=0;bottom=0;" parent="SmJWxPtpSJO5C7kNVtZx-48" vertex="1">
          <mxGeometry y="210" width="260" height="30" as="geometry" />
        </mxCell>
        <mxCell id="SmJWxPtpSJO5C7kNVtZx-71" style="shape=partialRectangle;connectable=0;fillColor=none;top=0;left=0;bottom=0;right=0;editable=1;overflow=hidden;whiteSpace=wrap;html=1;" parent="SmJWxPtpSJO5C7kNVtZx-70" vertex="1">
          <mxGeometry width="30" height="30" as="geometry">
            <mxRectangle width="30" height="30" as="alternateBounds" />
          </mxGeometry>
        </mxCell>
        <mxCell id="SmJWxPtpSJO5C7kNVtZx-72" value="Hire_Date -DATE" style="shape=partialRectangle;connectable=0;fillColor=none;top=0;left=0;bottom=0;right=0;align=left;spacingLeft=6;overflow=hidden;whiteSpace=wrap;html=1;" parent="SmJWxPtpSJO5C7kNVtZx-70" vertex="1">
          <mxGeometry x="30" width="230" height="30" as="geometry">
            <mxRectangle width="230" height="30" as="alternateBounds" />
          </mxGeometry>
        </mxCell>
        <mxCell id="SmJWxPtpSJO5C7kNVtZx-76" style="shape=tableRow;horizontal=0;startSize=0;swimlaneHead=0;swimlaneBody=0;fillColor=none;collapsible=0;dropTarget=0;points=[[0,0.5],[1,0.5]];portConstraint=eastwest;top=0;left=0;right=0;bottom=0;" parent="SmJWxPtpSJO5C7kNVtZx-48" vertex="1">
          <mxGeometry y="240" width="260" height="30" as="geometry" />
        </mxCell>
        <mxCell id="SmJWxPtpSJO5C7kNVtZx-77" style="shape=partialRectangle;connectable=0;fillColor=none;top=0;left=0;bottom=0;right=0;editable=1;overflow=hidden;whiteSpace=wrap;html=1;" parent="SmJWxPtpSJO5C7kNVtZx-76" vertex="1">
          <mxGeometry width="30" height="30" as="geometry">
            <mxRectangle width="30" height="30" as="alternateBounds" />
          </mxGeometry>
        </mxCell>
        <mxCell id="SmJWxPtpSJO5C7kNVtZx-78" value="Address VARCHAR(150)" style="shape=partialRectangle;connectable=0;fillColor=none;top=0;left=0;bottom=0;right=0;align=left;spacingLeft=6;overflow=hidden;whiteSpace=wrap;html=1;" parent="SmJWxPtpSJO5C7kNVtZx-76" vertex="1">
          <mxGeometry x="30" width="230" height="30" as="geometry">
            <mxRectangle width="230" height="30" as="alternateBounds" />
          </mxGeometry>
        </mxCell>
        <mxCell id="SmJWxPtpSJO5C7kNVtZx-73" style="shape=tableRow;horizontal=0;startSize=0;swimlaneHead=0;swimlaneBody=0;fillColor=none;collapsible=0;dropTarget=0;points=[[0,0.5],[1,0.5]];portConstraint=eastwest;top=0;left=0;right=0;bottom=0;" parent="SmJWxPtpSJO5C7kNVtZx-48" vertex="1">
          <mxGeometry y="270" width="260" height="30" as="geometry" />
        </mxCell>
        <mxCell id="SmJWxPtpSJO5C7kNVtZx-74" style="shape=partialRectangle;connectable=0;fillColor=none;top=0;left=0;bottom=0;right=0;editable=1;overflow=hidden;whiteSpace=wrap;html=1;" parent="SmJWxPtpSJO5C7kNVtZx-73" vertex="1">
          <mxGeometry width="30" height="30" as="geometry">
            <mxRectangle width="30" height="30" as="alternateBounds" />
          </mxGeometry>
        </mxCell>
        <mxCell id="SmJWxPtpSJO5C7kNVtZx-75" style="shape=partialRectangle;connectable=0;fillColor=none;top=0;left=0;bottom=0;right=0;align=left;spacingLeft=6;overflow=hidden;whiteSpace=wrap;html=1;" parent="SmJWxPtpSJO5C7kNVtZx-73" vertex="1">
          <mxGeometry x="30" width="230" height="30" as="geometry">
            <mxRectangle width="230" height="30" as="alternateBounds" />
          </mxGeometry>
        </mxCell>
        <mxCell id="SmJWxPtpSJO5C7kNVtZx-67" style="shape=tableRow;horizontal=0;startSize=0;swimlaneHead=0;swimlaneBody=0;fillColor=none;collapsible=0;dropTarget=0;points=[[0,0.5],[1,0.5]];portConstraint=eastwest;top=0;left=0;right=0;bottom=0;" parent="SmJWxPtpSJO5C7kNVtZx-48" vertex="1">
          <mxGeometry y="300" width="260" height="30" as="geometry" />
        </mxCell>
        <mxCell id="SmJWxPtpSJO5C7kNVtZx-68" style="shape=partialRectangle;connectable=0;fillColor=none;top=0;left=0;bottom=0;right=0;editable=1;overflow=hidden;whiteSpace=wrap;html=1;" parent="SmJWxPtpSJO5C7kNVtZx-67" vertex="1">
          <mxGeometry width="30" height="30" as="geometry">
            <mxRectangle width="30" height="30" as="alternateBounds" />
          </mxGeometry>
        </mxCell>
        <mxCell id="SmJWxPtpSJO5C7kNVtZx-69" style="shape=partialRectangle;connectable=0;fillColor=none;top=0;left=0;bottom=0;right=0;align=left;spacingLeft=6;overflow=hidden;whiteSpace=wrap;html=1;" parent="SmJWxPtpSJO5C7kNVtZx-67" vertex="1">
          <mxGeometry x="30" width="230" height="30" as="geometry">
            <mxRectangle width="230" height="30" as="alternateBounds" />
          </mxGeometry>
        </mxCell>
        <mxCell id="Jxyg6J1B9j0fqfmeKga0-7" value="Orders_Table" style="shape=table;startSize=30;container=1;collapsible=1;childLayout=tableLayout;fixedRows=1;rowLines=0;fontStyle=1;align=center;resizeLast=1;html=1;" vertex="1" parent="1">
          <mxGeometry x="570" y="220" width="180" height="290" as="geometry" />
        </mxCell>
        <mxCell id="Jxyg6J1B9j0fqfmeKga0-8" value="" style="shape=tableRow;horizontal=0;startSize=0;swimlaneHead=0;swimlaneBody=0;fillColor=none;collapsible=0;dropTarget=0;points=[[0,0.5],[1,0.5]];portConstraint=eastwest;top=0;left=0;right=0;bottom=1;" vertex="1" parent="Jxyg6J1B9j0fqfmeKga0-7">
          <mxGeometry y="30" width="180" height="30" as="geometry" />
        </mxCell>
        <mxCell id="Jxyg6J1B9j0fqfmeKga0-9" value="PK" style="shape=partialRectangle;connectable=0;fillColor=none;top=0;left=0;bottom=0;right=0;fontStyle=1;overflow=hidden;whiteSpace=wrap;html=1;" vertex="1" parent="Jxyg6J1B9j0fqfmeKga0-8">
          <mxGeometry width="30" height="30" as="geometry">
            <mxRectangle width="30" height="30" as="alternateBounds" />
          </mxGeometry>
        </mxCell>
        <mxCell id="Jxyg6J1B9j0fqfmeKga0-10" value="OrderID -INT" style="shape=partialRectangle;connectable=0;fillColor=none;top=0;left=0;bottom=0;right=0;align=left;spacingLeft=6;fontStyle=5;overflow=hidden;whiteSpace=wrap;html=1;" vertex="1" parent="Jxyg6J1B9j0fqfmeKga0-8">
          <mxGeometry x="30" width="150" height="30" as="geometry">
            <mxRectangle width="150" height="30" as="alternateBounds" />
          </mxGeometry>
        </mxCell>
        <mxCell id="Jxyg6J1B9j0fqfmeKga0-11" value="" style="shape=tableRow;horizontal=0;startSize=0;swimlaneHead=0;swimlaneBody=0;fillColor=none;collapsible=0;dropTarget=0;points=[[0,0.5],[1,0.5]];portConstraint=eastwest;top=0;left=0;right=0;bottom=0;" vertex="1" parent="Jxyg6J1B9j0fqfmeKga0-7">
          <mxGeometry y="60" width="180" height="30" as="geometry" />
        </mxCell>
        <mxCell id="Jxyg6J1B9j0fqfmeKga0-12" value="&lt;b&gt;FK&lt;/b&gt;" style="shape=partialRectangle;connectable=0;fillColor=none;top=0;left=0;bottom=0;right=0;editable=1;overflow=hidden;whiteSpace=wrap;html=1;" vertex="1" parent="Jxyg6J1B9j0fqfmeKga0-11">
          <mxGeometry width="30" height="30" as="geometry">
            <mxRectangle width="30" height="30" as="alternateBounds" />
          </mxGeometry>
        </mxCell>
        <mxCell id="Jxyg6J1B9j0fqfmeKga0-13" value="CustomerID -INT" style="shape=partialRectangle;connectable=0;fillColor=none;top=0;left=0;bottom=0;right=0;align=left;spacingLeft=6;overflow=hidden;whiteSpace=wrap;html=1;" vertex="1" parent="Jxyg6J1B9j0fqfmeKga0-11">
          <mxGeometry x="30" width="150" height="30" as="geometry">
            <mxRectangle width="150" height="30" as="alternateBounds" />
          </mxGeometry>
        </mxCell>
        <mxCell id="Jxyg6J1B9j0fqfmeKga0-14" value="" style="shape=tableRow;horizontal=0;startSize=0;swimlaneHead=0;swimlaneBody=0;fillColor=none;collapsible=0;dropTarget=0;points=[[0,0.5],[1,0.5]];portConstraint=eastwest;top=0;left=0;right=0;bottom=0;" vertex="1" parent="Jxyg6J1B9j0fqfmeKga0-7">
          <mxGeometry y="90" width="180" height="30" as="geometry" />
        </mxCell>
        <mxCell id="Jxyg6J1B9j0fqfmeKga0-15" value="&lt;b&gt;FK&lt;/b&gt;" style="shape=partialRectangle;connectable=0;fillColor=none;top=0;left=0;bottom=0;right=0;editable=1;overflow=hidden;whiteSpace=wrap;html=1;" vertex="1" parent="Jxyg6J1B9j0fqfmeKga0-14">
          <mxGeometry width="30" height="30" as="geometry">
            <mxRectangle width="30" height="30" as="alternateBounds" />
          </mxGeometry>
        </mxCell>
        <mxCell id="Jxyg6J1B9j0fqfmeKga0-16" value="ItemID -INT" style="shape=partialRectangle;connectable=0;fillColor=none;top=0;left=0;bottom=0;right=0;align=left;spacingLeft=6;overflow=hidden;whiteSpace=wrap;html=1;" vertex="1" parent="Jxyg6J1B9j0fqfmeKga0-14">
          <mxGeometry x="30" width="150" height="30" as="geometry">
            <mxRectangle width="150" height="30" as="alternateBounds" />
          </mxGeometry>
        </mxCell>
        <mxCell id="Jxyg6J1B9j0fqfmeKga0-17" value="" style="shape=tableRow;horizontal=0;startSize=0;swimlaneHead=0;swimlaneBody=0;fillColor=none;collapsible=0;dropTarget=0;points=[[0,0.5],[1,0.5]];portConstraint=eastwest;top=0;left=0;right=0;bottom=0;" vertex="1" parent="Jxyg6J1B9j0fqfmeKga0-7">
          <mxGeometry y="120" width="180" height="30" as="geometry" />
        </mxCell>
        <mxCell id="Jxyg6J1B9j0fqfmeKga0-18" value="" style="shape=partialRectangle;connectable=0;fillColor=none;top=0;left=0;bottom=0;right=0;editable=1;overflow=hidden;whiteSpace=wrap;html=1;" vertex="1" parent="Jxyg6J1B9j0fqfmeKga0-17">
          <mxGeometry width="30" height="30" as="geometry">
            <mxRectangle width="30" height="30" as="alternateBounds" />
          </mxGeometry>
        </mxCell>
        <mxCell id="Jxyg6J1B9j0fqfmeKga0-19" value="Total_Amount -DECIMAL(10,2)" style="shape=partialRectangle;connectable=0;fillColor=none;top=0;left=0;bottom=0;right=0;align=left;spacingLeft=6;overflow=hidden;whiteSpace=wrap;html=1;" vertex="1" parent="Jxyg6J1B9j0fqfmeKga0-17">
          <mxGeometry x="30" width="150" height="30" as="geometry">
            <mxRectangle width="150" height="30" as="alternateBounds" />
          </mxGeometry>
        </mxCell>
        <mxCell id="Jxyg6J1B9j0fqfmeKga0-29" style="shape=tableRow;horizontal=0;startSize=0;swimlaneHead=0;swimlaneBody=0;fillColor=none;collapsible=0;dropTarget=0;points=[[0,0.5],[1,0.5]];portConstraint=eastwest;top=0;left=0;right=0;bottom=0;" vertex="1" parent="Jxyg6J1B9j0fqfmeKga0-7">
          <mxGeometry y="150" width="180" height="30" as="geometry" />
        </mxCell>
        <mxCell id="Jxyg6J1B9j0fqfmeKga0-30" style="shape=partialRectangle;connectable=0;fillColor=none;top=0;left=0;bottom=0;right=0;editable=1;overflow=hidden;whiteSpace=wrap;html=1;" vertex="1" parent="Jxyg6J1B9j0fqfmeKga0-29">
          <mxGeometry width="30" height="30" as="geometry">
            <mxRectangle width="30" height="30" as="alternateBounds" />
          </mxGeometry>
        </mxCell>
        <mxCell id="Jxyg6J1B9j0fqfmeKga0-31" value="Quantity INT" style="shape=partialRectangle;connectable=0;fillColor=none;top=0;left=0;bottom=0;right=0;align=left;spacingLeft=6;overflow=hidden;whiteSpace=wrap;html=1;" vertex="1" parent="Jxyg6J1B9j0fqfmeKga0-29">
          <mxGeometry x="30" width="150" height="30" as="geometry">
            <mxRectangle width="150" height="30" as="alternateBounds" />
          </mxGeometry>
        </mxCell>
        <mxCell id="Jxyg6J1B9j0fqfmeKga0-26" style="shape=tableRow;horizontal=0;startSize=0;swimlaneHead=0;swimlaneBody=0;fillColor=none;collapsible=0;dropTarget=0;points=[[0,0.5],[1,0.5]];portConstraint=eastwest;top=0;left=0;right=0;bottom=0;" vertex="1" parent="Jxyg6J1B9j0fqfmeKga0-7">
          <mxGeometry y="180" width="180" height="30" as="geometry" />
        </mxCell>
        <mxCell id="Jxyg6J1B9j0fqfmeKga0-27" style="shape=partialRectangle;connectable=0;fillColor=none;top=0;left=0;bottom=0;right=0;editable=1;overflow=hidden;whiteSpace=wrap;html=1;" vertex="1" parent="Jxyg6J1B9j0fqfmeKga0-26">
          <mxGeometry width="30" height="30" as="geometry">
            <mxRectangle width="30" height="30" as="alternateBounds" />
          </mxGeometry>
        </mxCell>
        <mxCell id="Jxyg6J1B9j0fqfmeKga0-28" value="Order_Date -Date" style="shape=partialRectangle;connectable=0;fillColor=none;top=0;left=0;bottom=0;right=0;align=left;spacingLeft=6;overflow=hidden;whiteSpace=wrap;html=1;" vertex="1" parent="Jxyg6J1B9j0fqfmeKga0-26">
          <mxGeometry x="30" width="150" height="30" as="geometry">
            <mxRectangle width="150" height="30" as="alternateBounds" />
          </mxGeometry>
        </mxCell>
        <mxCell id="Jxyg6J1B9j0fqfmeKga0-23" style="shape=tableRow;horizontal=0;startSize=0;swimlaneHead=0;swimlaneBody=0;fillColor=none;collapsible=0;dropTarget=0;points=[[0,0.5],[1,0.5]];portConstraint=eastwest;top=0;left=0;right=0;bottom=0;" vertex="1" parent="Jxyg6J1B9j0fqfmeKga0-7">
          <mxGeometry y="210" width="180" height="50" as="geometry" />
        </mxCell>
        <mxCell id="Jxyg6J1B9j0fqfmeKga0-24" style="shape=partialRectangle;connectable=0;fillColor=none;top=0;left=0;bottom=0;right=0;editable=1;overflow=hidden;whiteSpace=wrap;html=1;" vertex="1" parent="Jxyg6J1B9j0fqfmeKga0-23">
          <mxGeometry width="30" height="50" as="geometry">
            <mxRectangle width="30" height="50" as="alternateBounds" />
          </mxGeometry>
        </mxCell>
        <mxCell id="Jxyg6J1B9j0fqfmeKga0-25" value="Delivery_Staus ENUM(&#39;Delivered&#39;, &#39;Returned&#39;, &#39;Shipped&#39;)" style="shape=partialRectangle;connectable=0;fillColor=none;top=0;left=0;bottom=0;right=0;align=left;spacingLeft=6;overflow=hidden;whiteSpace=wrap;html=1;" vertex="1" parent="Jxyg6J1B9j0fqfmeKga0-23">
          <mxGeometry x="30" width="150" height="50" as="geometry">
            <mxRectangle width="150" height="50" as="alternateBounds" />
          </mxGeometry>
        </mxCell>
        <mxCell id="Jxyg6J1B9j0fqfmeKga0-20" style="shape=tableRow;horizontal=0;startSize=0;swimlaneHead=0;swimlaneBody=0;fillColor=none;collapsible=0;dropTarget=0;points=[[0,0.5],[1,0.5]];portConstraint=eastwest;top=0;left=0;right=0;bottom=0;" vertex="1" parent="Jxyg6J1B9j0fqfmeKga0-7">
          <mxGeometry y="260" width="180" height="30" as="geometry" />
        </mxCell>
        <mxCell id="Jxyg6J1B9j0fqfmeKga0-21" style="shape=partialRectangle;connectable=0;fillColor=none;top=0;left=0;bottom=0;right=0;editable=1;overflow=hidden;whiteSpace=wrap;html=1;" vertex="1" parent="Jxyg6J1B9j0fqfmeKga0-20">
          <mxGeometry width="30" height="30" as="geometry">
            <mxRectangle width="30" height="30" as="alternateBounds" />
          </mxGeometry>
        </mxCell>
        <mxCell id="Jxyg6J1B9j0fqfmeKga0-22" style="shape=partialRectangle;connectable=0;fillColor=none;top=0;left=0;bottom=0;right=0;align=left;spacingLeft=6;overflow=hidden;whiteSpace=wrap;html=1;" vertex="1" parent="Jxyg6J1B9j0fqfmeKga0-20">
          <mxGeometry x="30" width="150" height="30" as="geometry">
            <mxRectangle width="150" height="30" as="alternateBounds" />
          </mxGeometry>
        </mxCell>
        <mxCell id="Jxyg6J1B9j0fqfmeKga0-32" value="Supply_Order" style="shape=table;startSize=30;container=1;collapsible=1;childLayout=tableLayout;fixedRows=1;rowLines=0;fontStyle=1;align=center;resizeLast=1;html=1;" vertex="1" parent="1">
          <mxGeometry x="70" y="660" width="310" height="230" as="geometry" />
        </mxCell>
        <mxCell id="Jxyg6J1B9j0fqfmeKga0-33" value="" style="shape=tableRow;horizontal=0;startSize=0;swimlaneHead=0;swimlaneBody=0;fillColor=none;collapsible=0;dropTarget=0;points=[[0,0.5],[1,0.5]];portConstraint=eastwest;top=0;left=0;right=0;bottom=1;" vertex="1" parent="Jxyg6J1B9j0fqfmeKga0-32">
          <mxGeometry y="30" width="310" height="30" as="geometry" />
        </mxCell>
        <mxCell id="Jxyg6J1B9j0fqfmeKga0-34" value="PK" style="shape=partialRectangle;connectable=0;fillColor=none;top=0;left=0;bottom=0;right=0;fontStyle=1;overflow=hidden;whiteSpace=wrap;html=1;" vertex="1" parent="Jxyg6J1B9j0fqfmeKga0-33">
          <mxGeometry width="30" height="30" as="geometry">
            <mxRectangle width="30" height="30" as="alternateBounds" />
          </mxGeometry>
        </mxCell>
        <mxCell id="Jxyg6J1B9j0fqfmeKga0-35" value="Supply_OrderID -INT" style="shape=partialRectangle;connectable=0;fillColor=none;top=0;left=0;bottom=0;right=0;align=left;spacingLeft=6;fontStyle=5;overflow=hidden;whiteSpace=wrap;html=1;" vertex="1" parent="Jxyg6J1B9j0fqfmeKga0-33">
          <mxGeometry x="30" width="280" height="30" as="geometry">
            <mxRectangle width="280" height="30" as="alternateBounds" />
          </mxGeometry>
        </mxCell>
        <mxCell id="Jxyg6J1B9j0fqfmeKga0-36" value="" style="shape=tableRow;horizontal=0;startSize=0;swimlaneHead=0;swimlaneBody=0;fillColor=none;collapsible=0;dropTarget=0;points=[[0,0.5],[1,0.5]];portConstraint=eastwest;top=0;left=0;right=0;bottom=0;" vertex="1" parent="Jxyg6J1B9j0fqfmeKga0-32">
          <mxGeometry y="60" width="310" height="30" as="geometry" />
        </mxCell>
        <mxCell id="Jxyg6J1B9j0fqfmeKga0-37" value="FK" style="shape=partialRectangle;connectable=0;fillColor=none;top=0;left=0;bottom=0;right=0;editable=1;overflow=hidden;whiteSpace=wrap;html=1;" vertex="1" parent="Jxyg6J1B9j0fqfmeKga0-36">
          <mxGeometry width="30" height="30" as="geometry">
            <mxRectangle width="30" height="30" as="alternateBounds" />
          </mxGeometry>
        </mxCell>
        <mxCell id="Jxyg6J1B9j0fqfmeKga0-38" value="SupplierID -INT" style="shape=partialRectangle;connectable=0;fillColor=none;top=0;left=0;bottom=0;right=0;align=left;spacingLeft=6;overflow=hidden;whiteSpace=wrap;html=1;" vertex="1" parent="Jxyg6J1B9j0fqfmeKga0-36">
          <mxGeometry x="30" width="280" height="30" as="geometry">
            <mxRectangle width="280" height="30" as="alternateBounds" />
          </mxGeometry>
        </mxCell>
        <mxCell id="Jxyg6J1B9j0fqfmeKga0-39" value="" style="shape=tableRow;horizontal=0;startSize=0;swimlaneHead=0;swimlaneBody=0;fillColor=none;collapsible=0;dropTarget=0;points=[[0,0.5],[1,0.5]];portConstraint=eastwest;top=0;left=0;right=0;bottom=0;" vertex="1" parent="Jxyg6J1B9j0fqfmeKga0-32">
          <mxGeometry y="90" width="310" height="30" as="geometry" />
        </mxCell>
        <mxCell id="Jxyg6J1B9j0fqfmeKga0-40" value="FK" style="shape=partialRectangle;connectable=0;fillColor=none;top=0;left=0;bottom=0;right=0;editable=1;overflow=hidden;whiteSpace=wrap;html=1;" vertex="1" parent="Jxyg6J1B9j0fqfmeKga0-39">
          <mxGeometry width="30" height="30" as="geometry">
            <mxRectangle width="30" height="30" as="alternateBounds" />
          </mxGeometry>
        </mxCell>
        <mxCell id="Jxyg6J1B9j0fqfmeKga0-41" value="ItemID -INT" style="shape=partialRectangle;connectable=0;fillColor=none;top=0;left=0;bottom=0;right=0;align=left;spacingLeft=6;overflow=hidden;whiteSpace=wrap;html=1;" vertex="1" parent="Jxyg6J1B9j0fqfmeKga0-39">
          <mxGeometry x="30" width="280" height="30" as="geometry">
            <mxRectangle width="280" height="30" as="alternateBounds" />
          </mxGeometry>
        </mxCell>
        <mxCell id="Jxyg6J1B9j0fqfmeKga0-42" value="" style="shape=tableRow;horizontal=0;startSize=0;swimlaneHead=0;swimlaneBody=0;fillColor=none;collapsible=0;dropTarget=0;points=[[0,0.5],[1,0.5]];portConstraint=eastwest;top=0;left=0;right=0;bottom=0;" vertex="1" parent="Jxyg6J1B9j0fqfmeKga0-32">
          <mxGeometry y="120" width="310" height="30" as="geometry" />
        </mxCell>
        <mxCell id="Jxyg6J1B9j0fqfmeKga0-43" value="" style="shape=partialRectangle;connectable=0;fillColor=none;top=0;left=0;bottom=0;right=0;editable=1;overflow=hidden;whiteSpace=wrap;html=1;" vertex="1" parent="Jxyg6J1B9j0fqfmeKga0-42">
          <mxGeometry width="30" height="30" as="geometry">
            <mxRectangle width="30" height="30" as="alternateBounds" />
          </mxGeometry>
        </mxCell>
        <mxCell id="Jxyg6J1B9j0fqfmeKga0-44" value="Order_Date -Date" style="shape=partialRectangle;connectable=0;fillColor=none;top=0;left=0;bottom=0;right=0;align=left;spacingLeft=6;overflow=hidden;whiteSpace=wrap;html=1;" vertex="1" parent="Jxyg6J1B9j0fqfmeKga0-42">
          <mxGeometry x="30" width="280" height="30" as="geometry">
            <mxRectangle width="280" height="30" as="alternateBounds" />
          </mxGeometry>
        </mxCell>
        <mxCell id="Jxyg6J1B9j0fqfmeKga0-48" style="shape=tableRow;horizontal=0;startSize=0;swimlaneHead=0;swimlaneBody=0;fillColor=none;collapsible=0;dropTarget=0;points=[[0,0.5],[1,0.5]];portConstraint=eastwest;top=0;left=0;right=0;bottom=0;" vertex="1" parent="Jxyg6J1B9j0fqfmeKga0-32">
          <mxGeometry y="150" width="310" height="30" as="geometry" />
        </mxCell>
        <mxCell id="Jxyg6J1B9j0fqfmeKga0-49" style="shape=partialRectangle;connectable=0;fillColor=none;top=0;left=0;bottom=0;right=0;editable=1;overflow=hidden;whiteSpace=wrap;html=1;" vertex="1" parent="Jxyg6J1B9j0fqfmeKga0-48">
          <mxGeometry width="30" height="30" as="geometry">
            <mxRectangle width="30" height="30" as="alternateBounds" />
          </mxGeometry>
        </mxCell>
        <mxCell id="Jxyg6J1B9j0fqfmeKga0-50" value="Quantity -INT" style="shape=partialRectangle;connectable=0;fillColor=none;top=0;left=0;bottom=0;right=0;align=left;spacingLeft=6;overflow=hidden;whiteSpace=wrap;html=1;" vertex="1" parent="Jxyg6J1B9j0fqfmeKga0-48">
          <mxGeometry x="30" width="280" height="30" as="geometry">
            <mxRectangle width="280" height="30" as="alternateBounds" />
          </mxGeometry>
        </mxCell>
        <mxCell id="Jxyg6J1B9j0fqfmeKga0-45" style="shape=tableRow;horizontal=0;startSize=0;swimlaneHead=0;swimlaneBody=0;fillColor=none;collapsible=0;dropTarget=0;points=[[0,0.5],[1,0.5]];portConstraint=eastwest;top=0;left=0;right=0;bottom=0;" vertex="1" parent="Jxyg6J1B9j0fqfmeKga0-32">
          <mxGeometry y="180" width="310" height="50" as="geometry" />
        </mxCell>
        <mxCell id="Jxyg6J1B9j0fqfmeKga0-46" style="shape=partialRectangle;connectable=0;fillColor=none;top=0;left=0;bottom=0;right=0;editable=1;overflow=hidden;whiteSpace=wrap;html=1;" vertex="1" parent="Jxyg6J1B9j0fqfmeKga0-45">
          <mxGeometry width="30" height="50" as="geometry">
            <mxRectangle width="30" height="50" as="alternateBounds" />
          </mxGeometry>
        </mxCell>
        <mxCell id="Jxyg6J1B9j0fqfmeKga0-47" value="Status -ENUM(&#39;Pending&#39;, &#39;Shipped&#39;, &#39;Delivered&#39;, Cancelled&#39;)" style="shape=partialRectangle;connectable=0;fillColor=none;top=0;left=0;bottom=0;right=0;align=left;spacingLeft=6;overflow=hidden;whiteSpace=wrap;html=1;" vertex="1" parent="Jxyg6J1B9j0fqfmeKga0-45">
          <mxGeometry x="30" width="280" height="50" as="geometry">
            <mxRectangle width="280" height="50" as="alternateBounds" />
          </mxGeometry>
        </mxCell>
        <mxCell id="Jxyg6J1B9j0fqfmeKga0-51" value="" style="edgeStyle=entityRelationEdgeStyle;fontSize=12;html=1;endArrow=ERoneToMany;rounded=0;entryX=0.001;entryY=0.063;entryDx=0;entryDy=0;entryPerimeter=0;exitX=1.003;exitY=0.088;exitDx=0;exitDy=0;exitPerimeter=0;" edge="1" parent="1" source="mP1-D7ETQi7nWEEPG5Y4-1" target="Jxyg6J1B9j0fqfmeKga0-7">
          <mxGeometry width="100" height="100" relative="1" as="geometry">
            <mxPoint x="680" y="510" as="sourcePoint" />
            <mxPoint x="780" y="410" as="targetPoint" />
            <Array as="points">
              <mxPoint x="450" y="80" />
            </Array>
          </mxGeometry>
        </mxCell>
        <mxCell id="Jxyg6J1B9j0fqfmeKga0-52" value="" style="edgeStyle=entityRelationEdgeStyle;fontSize=12;html=1;endArrow=ERoneToMany;rounded=0;entryX=1.015;entryY=0.061;entryDx=0;entryDy=0;entryPerimeter=0;" edge="1" parent="1" target="mP1-D7ETQi7nWEEPG5Y4-26">
          <mxGeometry width="100" height="100" relative="1" as="geometry">
            <mxPoint x="1260" y="406" as="sourcePoint" />
            <mxPoint x="780" y="410" as="targetPoint" />
            <Array as="points">
              <mxPoint x="929" y="320" />
            </Array>
          </mxGeometry>
        </mxCell>
        <mxCell id="Jxyg6J1B9j0fqfmeKga0-53" value="" style="edgeStyle=entityRelationEdgeStyle;fontSize=12;html=1;endArrow=ERoneToMany;rounded=0;exitX=0.014;exitY=0.088;exitDx=0;exitDy=0;exitPerimeter=0;entryX=0.997;entryY=0.078;entryDx=0;entryDy=0;entryPerimeter=0;" edge="1" parent="1" source="SmJWxPtpSJO5C7kNVtZx-29" target="Jxyg6J1B9j0fqfmeKga0-32">
          <mxGeometry width="100" height="100" relative="1" as="geometry">
            <mxPoint x="680" y="510" as="sourcePoint" />
            <mxPoint x="390" y="680" as="targetPoint" />
          </mxGeometry>
        </mxCell>
        <mxCell id="Jxyg6J1B9j0fqfmeKga0-54" value="" style="edgeStyle=entityRelationEdgeStyle;fontSize=12;html=1;endArrow=ERoneToMany;rounded=0;exitX=-0.012;exitY=0.071;exitDx=0;exitDy=0;exitPerimeter=0;entryX=0.955;entryY=0.019;entryDx=0;entryDy=0;entryPerimeter=0;" edge="1" parent="1" source="mP1-D7ETQi7nWEEPG5Y4-26" target="Jxyg6J1B9j0fqfmeKga0-7">
          <mxGeometry width="100" height="100" relative="1" as="geometry">
            <mxPoint x="680" y="510" as="sourcePoint" />
            <mxPoint x="780" y="410" as="targetPoint" />
            <Array as="points">
              <mxPoint x="810" y="280" />
            </Array>
          </mxGeometry>
        </mxCell>
        <mxCell id="Jxyg6J1B9j0fqfmeKga0-55" value="" style="edgeStyle=entityRelationEdgeStyle;fontSize=12;html=1;endArrow=ERoneToMany;rounded=0;entryX=0.622;entryY=-0.006;entryDx=0;entryDy=0;entryPerimeter=0;exitX=-0.009;exitY=0.04;exitDx=0;exitDy=0;exitPerimeter=0;" edge="1" parent="1" source="mP1-D7ETQi7nWEEPG5Y4-26" target="Jxyg6J1B9j0fqfmeKga0-32">
          <mxGeometry width="100" height="100" relative="1" as="geometry">
            <mxPoint x="960" y="280" as="sourcePoint" />
            <mxPoint x="260.03" y="765" as="targetPoint" />
            <Array as="points">
              <mxPoint x="770" y="645" />
              <mxPoint x="540" y="220" />
            </Array>
          </mxGeometry>
        </mxCell>
        <mxCell id="Jxyg6J1B9j0fqfmeKga0-56" value="" style="edgeStyle=entityRelationEdgeStyle;fontSize=12;html=1;endArrow=ERoneToMany;rounded=0;entryX=0.703;entryY=0.004;entryDx=0;entryDy=0;entryPerimeter=0;exitX=1;exitY=0;exitDx=0;exitDy=0;" edge="1" parent="1" source="mP1-D7ETQi7nWEEPG5Y4-1" target="SmJWxPtpSJO5C7kNVtZx-10">
          <mxGeometry width="100" height="100" relative="1" as="geometry">
            <mxPoint x="680" y="440" as="sourcePoint" />
            <mxPoint x="780" y="340" as="targetPoint" />
            <Array as="points">
              <mxPoint x="320" y="300" />
            </Array>
          </mxGeometry>
        </mxCell>
        <mxCell id="Jxyg6J1B9j0fqfmeKga0-57" value="" style="edgeStyle=entityRelationEdgeStyle;fontSize=12;html=1;endArrow=ERoneToMany;rounded=0;entryX=0.126;entryY=0.003;entryDx=0;entryDy=0;entryPerimeter=0;" edge="1" parent="1" target="mP1-D7ETQi7nWEEPG5Y4-26">
          <mxGeometry width="100" height="100" relative="1" as="geometry">
            <mxPoint x="340" y="330" as="sourcePoint" />
            <mxPoint x="990" y="10" as="targetPoint" />
          </mxGeometry>
        </mxCell>
      </root>
    </mxGraphModel>
  </diagram>
</mxfile>
